<svg version="1.2" xmlns="http://www.w3.org/2000/svg" viewBox="0 0 340 340" width="340" height="340">
	<title>vbc-svg</title>
	<defs>
		<clipPath clipPathUnits="userSpaceOnUse" id="cp1">
			<path d="m-391-227h1122.52v793.7h-1122.52z"/>
		</clipPath>
	</defs>
	<style>
		.s0 { fill: #e9c9c7 } 
		.s1 { fill: #b38086 } 
	</style>
	<g id="g10">
		<g id="g34">
			<g id="Clip-Path: g36" clip-path="url(#cp1)">
				<g id="g36">
					<g id="g198">
						<path id="path200" class="s0" d="m183.8 186.1v-16.3h3.3l1.3-6.8h-4.6v-100.4h24.8l1.4-6.8h-33v164z"/>
					</g>
					<g id="g202">
						<path id="path204" class="s0" d="m271.5 203.3q-3.3-11.5-9.7-20.9-4.6-6.5-12.5-11-7.9-4.6-14.7-5.5 5.8-2 11-6.5 5.2-4.5 9.2-11.5 4.1-6.9 6.5-15.9 2.4-8.9 2.4-19.2 0.3-22-11.6-39.8-5.5-8.1-13-12.7-4.8-2.8-12.2-3.9l-1.3 6.6q5.1 0.9 9.6 3.7 6.5 4 11.4 10.9 4.8 6.8 7.6 15.9 2.7 9.1 2.7 19.1 0 10.1-2.6 19.2-2.6 9.1-7.4 16.1-4.9 6.9-11.7 11-6.8 4.1-14.9 4.1h-15.1l-1.4 6.8h10.4q27.5 0 40.3 13.9 12.8 13.9 13.4 43.7 0.4 11.3-2.1 21.8-2.4 10.6-8.6 18.5-6.1 7.9-16.6 12.6-10.5 4.7-26.4 4.7h-30.4v-17.4l-5 24.2h2.1 33.3q9.7 0 20.2-2.3 10.5-2.2 19.4-9 8.9-6.8 14.9-19.5 6-12.6 6-33.6 0-12.6-3.2-24.1z"/>
					</g>
					<g id="g206">
						<path id="path208" class="s1" d="m214.8 56.9h7.1l-48.4 236.6h-2.8-0.6-0.6-2.8l-47.6-232.8h7.1l44.1 216.9z"/>
					</g>
					<g id="g210">
						<path id="path212" class="s1" d="m182.5 7.4c-97.6 9.1-165.8 100.4-143.9 196.3 20.5 87.1 108.9 139.8 195.3 117.4 32.2-8.4 61.3-26.4 83.3-51.8-15.8 21.7-37.6 39.3-62.5 50.4-5.9 2.8-12.8 5.3-19.1 7.3-107.3 32.4-214.2-50.5-211.1-162.2 2.5-85.7 71.8-156.3 158-157.4z"/>
					</g>
					<g id="g214">
						<path id="path216" class="s1" d="m111.2 119.9c-3.4 1.3-5.6 4.2-7.8 6.9q-0.3 0.6-0.7 1.1c-0.7 0.6-0.5 1.5-0.7 2.3q0 0.2-0.1 0.4c-0.7 2.2 0.2 4.4 2.1 5.4 1.5 0.8 3.1 1.1 4.8 1q4.1-0.3 7.8-2.3c0.5-0.2 1-0.5 1.1-1.1 1.2-1.1 2.5-2 3.2-3.5 2.1-4.7 1.9-7.6-3-10.6-0.6-0.6-1.5-0.6-2.3-0.6-1.5 0-3.1 0.2-4.4 1z"/>
					</g>
					<g id="g218">
						<path id="path220" class="s1" d="m108.8 142.1c-1.4 3.4-0.5 5.7 2.8 7.1q3.1 1.4 6.4 0.8c1.4-0.3 2.8-0.3 4.1-0.7 0.5-0.6 1.2-0.8 1.7-1.1 1.3-0.8 2.5-1.7 3.4-2.9 2.4-2.9 1.4-7.5-1.4-9.4-1.6-1.5-4.8-2-6.5-1.1l-2 0.5c-0.5-0.3-1-0.1-1.5 0.2-2.2 1.1-4.1 2.4-5.8 4.2-0.4 0.5-0.8 1-0.8 1.7q0 0.5-0.4 0.7z"/>
					</g>
					<g id="g222">
						<path id="path224" class="s1" d="m89 93.8q-1.3 1.1-2.7 2.3c-2.3 2.6-4.3 5.5-4.9 9.1-0.2 1.4-0.3 2.8 0 4.3-0.2 0.3-0.3 0.6 0 1q0.3 1.2 1.2 2.2c1.3 0.5 2.5 0.4 3.4-0.7 1.2-1.2 1.9-2.6 1-4.5-0.6-1.2-1-2.5-0.8-3.9 0.2-1.5 0.7-1.9 2.1-1.6 1.1 0.2 1.8-0.3 2.3-1.2 0.9-1.7 2.7-2 4.1-2.8 0.8-0.5 1.8 1.4 1.4 2.6-0.1 0.4-0.3 0.6-0.5 0.9-0.6 0.7-0.8 1.5-0.6 2.4 0.4 1.7-0.3 3.1-1.4 4.2-1.1 1.1-1.6 2.6-2.6 3.7-0.7 0.8 0.1 1 0.8 0.8 3-1.9 5.6-4.2 7.1-7.7 0.3-1-0.5-1.6-0.9-2.4-0.5-1-0.7-1.8 0.6-2.2 0.9-0.3 1.2-1.1 1.4-1.9-0.4-2.4-1.7-4.2-3.8-5.3-0.3-0.1-0.5-0.3-0.6-0.6-0.4 0.2-0.8 0.1-1.2 0-0.7-0.3-1.2 0.1-1.8 0.2q-1.8 0.5-3.6 1.1z"/>
					</g>
					<g id="g226">
						<path id="path228" class="s1" d="m119.1 269.8c2.1 2.3 3.9 2.7 6.7 1.5 0.7-0.2 1.3-0.3 2-0.5 1-1 2.1-1.7 2.9-3 1.3-2.5 0.2-4.8-2.5-5.2-0.7-0.1-1.5-0.1-2.2-0.2-1 0.4-2.1 0.6-3.1 1-2.3 1-3.7 2.6-4 5.2q0.1 0.6 0.2 1.2z"/>
					</g>
					<g id="g230">
						<path id="path232" class="s1" d="m113.8 194.7c-1.6 0.7-1.9 2.2-2.4 3.7q0.2 0.9 0.4 1.8c0.1 0.6 0.6 0.9 0.9 1.4 1 1.1 1.6 2.7 3.4 2.6h0.1l0.2-0.1c0.2-1-0.5-1.3-1.1-1.7-1-0.7-1.6-1.7-2.1-2.7-0.4-1-0.5-2.1 0.3-3 0.4-0.6 0.8-1.2 0.3-2z"/>
					</g>
					<g id="g234">
						<path id="path236" class="s1" d="m85.4 95c0.7-2.7 1.5-5.4 0.8-8.3-1.2-4.7-5.1-6.2-9.2-4.6-2.8 1.1-4.6 3.3-6.5 5.5q-1.5 2.7-2.5 5.7c-1.2 2.2-1.1 6.4 0.2 8.1 2.2 3.4 5.2 4.1 8.7 2.4 3.6-1.7 5.8-4.7 7.8-7.8q0.4-0.5 0.7-1z"/>
					</g>
					<g id="g238">
						<path id="path240" class="s1" d="m98.2 108.3c-3.3 3.1-5.3 6.9-5.4 11.6 0 2.5 2 4.5 4.3 4.8 6.3 0.8 12.9-5 14.7-9.7 1.3-3.4 0.5-7.1-3.3-9.5q-0.1-0.2-0.3-0.3-0.9-0.4-1.8-0.5-0.4 0-0.9 0c-2.8 0.3-5.4 1.1-7.3 3.6z"/>
					</g>
					<g id="g242">
						<path id="path244" class="s1" d="m122.4 150.2c-1.7 0.4-3.5 0.8-5.2 1.4-2.1 0.8-3.6 2.2-5 3.9-1.4 1.9-0.8 4.8 1.3 6.4 2.8 2 5.9 2.4 9.1 2.4q0.8-0.1 1.7-0.1c2.7-0.7 5.2-1.8 6.6-4.5 1.4-2.6 0.8-5.7-1.6-7.5-1.9-1.3-3.9-2.2-6.2-1.9-0.3 0-0.5-0.1-0.7-0.1z"/>
					</g>
					<g id="g246">
						<path id="path248" class="s1" d="m123.7 165.3c-2.7 0.3-5.4 0.5-7.8 1.9-2.5 1.4-3.6 4-2.8 6.2 0.6 1.4 1.8 2.3 2.9 3.2 2.9 1.6 6 2.1 9.2 2 2.3-0.2 4.3-1.2 5.8-2.9 1.8-2 1.8-4.1 0.2-6.9 0-0.5-0.3-0.7-0.6-0.8-2.1-1.5-4.5-2.3-6.9-2.7z"/>
					</g>
					<g id="g250">
						<path id="path252" class="s1" d="m116.9 180.4c-0.9 0.5-1.8 1-2.6 1.6-1.8 1.2-2.2 3.7-1 5.5 1 1.7 2.4 2.9 4.1 3.8 3 0.9 6.1 1.5 9.2 0.6 2.8-0.8 4.7-2.7 4.7-4.9 0-2.5-2.2-5.4-4.7-6.2-3.2-1.1-6.5-1.5-9.7-0.4z"/>
					</g>
					<g id="g254">
						<path id="path256" class="s1" d="m113.8 194.7c-0.1 0.8-0.2 1.5-0.9 2.1-0.9 0.8-0.5 2.2-0.1 2.9 0.5 1.1 1 2.5 2.3 3 0.6 0.2 1.1 0.8 1.3 1.4 3.3 1.8 6.7 2.2 10.1 0.4 3.2-1.7 3.7-5.3 1.1-8-2.9-2.9-6.5-3.5-10.2-3.1-1.2 0.6-2.6 0.3-3.6 1.3z"/>
					</g>
					<g id="g258">
						<path id="path260" class="s1" d="m116.2 206q-1.4 0.3-2.8 0.7c-3.2 2-3.8 3-3.1 5.7 0.7 2.6 2.3 4.1 4.7 4.7 2.7 0.9 5.4 1 8 0.2 2.8-0.9 4.3-2.8 3.8-5.4-0.4-2.2-2.3-3.3-4.1-4.2-2-1.1-4.3-1.4-6.5-1.7z"/>
					</g>
					<g id="g262">
						<path id="path264" class="s1" d="m114.9 218.9c-1.3 0.3-2.5 0.6-3.6 1.5-2.6 2.5-2.4 5.6 0.6 7.8 0.9 0.6 2 0.9 2.9 1.4 2.1 0.2 4.1 0.4 6.2-0.2 1.8-0.5 3-1.6 4.2-2.9 0.9-1.1 0.7-2.7-0.2-4.1-1.7-2.3-4-3-6.5-3.4-1.2-0.1-2.4-0.1-3.6-0.1z"/>
					</g>
					<g id="g266">
						<path id="path268" class="s1" d="m115.2 231.1c-1.6 0.5-3 1.2-4 2.5-2.1 2.8-0.5 6.4 3.2 7.3 2.4 0.6 4.8 0.7 7-0.6 0.4-0.2 0.9-0.2 1.3-0.3 0.5-0.4 1-0.8 1.6-1.3 1.8-1.6 1.7-4.4-0.4-5.8-2.1-1.6-4.6-2-7.2-1.9q-0.8 0.1-1.5 0.1z"/>
					</g>
					<g id="g270">
						<path id="path272" class="s1" d="m91.8 112.6c-0.4-0.1-1.4-0.1-0.3-0.8 0.6-0.4 0.9-0.9 1.1-1.6 0.4-1.3 1.6-1.9 2.2-3 0.6-1 1-2 0.6-3.3q-0.5-1.4 0.7-2.4c1-0.9 0.4-3.8-0.9-4.3-0.3-0.1-0.5 0-0.6 0.2-0.9 0.8-2 1.2-3 1.7-0.7 0.4-1.1 0.8-1.4 1.5-0.4 1.2-1.3 1.5-2.4 0.7-0.7-0.6-1-0.2-1.3 0.3-1.1 1.8-0.9 3.7-0.1 5.5 1 2.5 1 3.1-0.7 4.8-0.8 1-2.1 0.6-3.1 0.8 2.3 2.4 5 1.8 7.6 0.8 0.5-0.2 1.2-0.2 1.6-0.9z"/>
					</g>
					<g id="g274">
						<path id="path276" class="s1" d="m125 243.5c-3.2-1.9-6.5-1.2-9.7-0.1-1.8 0.7-2.8 2.4-3.1 4.5-0.2 1.6 1.8 3.7 3.9 4.2 1 0.2 2 0.2 3 0.4 2.5-0.4 4.6-1.5 6.3-3.4 1.7-1.9 1.5-4-0.4-5.6z"/>
					</g>
					<g id="g278">
						<path id="path280" class="s1" d="m118.9 253.7c-2.5 1-4 3.3-3.5 5.4 0.4 2.2 2.4 3.6 4.7 3.5 1.4-0.1 2.9-0.3 4.2-0.7 1-0.9 2.1-1.5 2.9-2.5 2.2-2.5 1.4-5.3-1.8-6.3-1.6-0.5-3.1-0.2-4.6 0.2q-1 0.2-1.9 0.4z"/>
					</g>
					<g id="g282">
						<path id="path284" class="s1" d="m133.3 271.7c-2.9-0.7-5.6-0.6-7.9 1.6-1 1-2.3 2.1-2 3.9 0.3 2.7 2.9 4.1 5.2 3q1.5-0.6 3-1.2c0.7-0.7 1.6-1.3 2.2-2.2 1.2-1.6 1-3.8-0.5-5.1z"/>
					</g>
					<g id="g286">
						<path id="path288" class="s1" d="m132.6 279.7c-0.9 0.6-2 1.1-2.8 1.9-1.6 1.8-1.8 4.3-0.4 5.8 1.8 0.9 3.5-0.5 5.2 0q0.4 0 0.7-0.2c0.3-0.2 0.6-0.4 0.7-0.8 0.8-1 1.7-1.7 2.1-2.9 0.8-2.1 0.2-3.5-1.8-4.3-0.3-0.4-0.7-0.4-1.2-0.2q-1.2 0.3-2.5 0.7z"/>
					</g>
					<g id="g290">
						<path id="path292" class="s1" d="m133.2 291.8q0.2 0.8 0.3 1.5c1.6 2 2.6 1.8 5.2 0.8 1-0.4 1.9-1.2 2.6-2.1 0.9-1.3 1.8-2.6 1-4.3q0.1-0.1 0-0.2 0-0.1-0.1-0.1-0.7-0.6-1.5-1.2-0.7-0.5-1.4 0c-0.9 0.2-1.7 0.5-2.5 0.9-0.3-0.1-0.6 0.2-0.8 0.4-0.2 0.1-0.3 0.4-0.5 0.6-1.2 0.9-2 2.1-2.3 3.7z"/>
					</g>
					<g id="g294">
						<path id="path296" class="s1" d="m138.8 298.9q0.1 0.3 0.2 0.6c1.4 1.5 2.6 1.7 4.3 0.5 1.4-0.9 2.6-1.9 3.2-3.5 0.9-2.5 0.4-3.4-2.2-4.2q-0.3 0-0.5 0.1-0.4-0.2-0.6 0.1c-0.8 0.6-1.7 0.9-2.5 1.6-1.1 1.2-2.1 2.4-2.1 4.2q-0.2 0.4 0.2 0.6z"/>
					</g>
					<g id="g298">
						<path id="path300" class="s1" d="m144.3 304.5c0.7 1.4 1.4 1.6 3.8 1 1.4-0.8 2.2-2 2.7-3.5 0.5-1.3 0.8-2.5-0.4-3.5-1.2-1-2.3-0.4-3.4 0.2-1.6 0.9-2.6 2.4-3.1 4.3q-0.4 0.9 0.4 1.5z"/>
					</g>
					<g id="g302">
						<path id="path304" class="s1" d="m100 98.4c-0.6 0.7-1.1 1.7-2.2 1.8-1 0.2-0.8 1-0.5 1.7 0.5 1 1.1 2 1.6 3 1.1-2 1.5-4.2 1.1-6.5z"/>
					</g>
					<g id="g306">
						<path id="path308" class="s1" d="m134.7 287c-1.2-0.1-2.4-0.3-3.5 0.5-0.5 0.3-1.2-0.5-1.8-0.1 1.4 0.9 2.8 0.9 4.3 0.5 0.6 0 1.1-0.1 1-0.9z"/>
					</g>
					<g id="g310">
						<path id="path312" class="s0" d="m159.1 243.7c0.8 4.2 1.8 8.3 2.9 12.7l0.1 0.5c0.4 0.9 0.6 1.7 0.7 2.6 1.7 4.5 3.5 8.4 5.4 12q0.6 1.1 1.3 2.2l-11.7-57.5c-0.7 9.4-0.3 18.5 1.3 27.5z"/>
					</g>
					<g id="g314">
						<path id="path316" class="s0" d="m175.4 283.4q0.1 0.1 0.1 0.2l46.4-226.7h-7.1l-44.2 218.9c1.4 2.5 3 5.1 4.8 7.6z"/>
					</g>
					<g id="g318">
						<path id="path320" class="s0" d="m140.8 157.8q0-1.2 0-2.4c0.1-2 0.1-4.3 0.5-6.6 0.2-3 0.1-5.5-0.2-7.8-0.5-1.1-0.6-2.1-0.7-2.6l-0.1-0.6c-0.6-4.2-1.2-8.1-2.5-11.9-2.4-7.3-4.7-12.5-7.6-17.1-0.3-0.5-0.9-1.4-1.2-2.7q-0.4-0.6-0.8-1.1l12 59q0.4-3.1 0.6-6.2z"/>
					</g>
					<g id="g322">
						<path id="path324" class="s0" d="m123.2 72.8c2.2 1.6 4.3 3.3 6.5 5l-3.5-17h-7.1l2.2 10.6q1 0.7 1.9 1.4z"/>
					</g>
					<g id="g326">
						<path id="path328" class="s1" d="m142.5 193.2c-0.4 0.8-0.6 1.7-0.6 2.6 0.8-0.7 1-1.6 0.6-2.6z"/>
					</g>
					<g id="g330">
						<path id="path332" class="s0" d="m104.3 69c22 12.6 45 32.8 52.5 58.1 1.2 4 1.8 8.3 2 12.6 0.8 11.9 0.2 24.1-1.9 35.9-1.8 10.2-4.6 20-6.2 30.1-1.1 7.3-1.8 14.8-1.7 22.2 0.2 22.6 9.7 44.4 22.5 62.8-20.1-17.5-33.2-43.6-32.9-70.5-0.7-20.9 6.9-40.8 8.4-61.4 0.6-6.2 0.7-12.5 0.6-18.7 0-2.9-0.2-5.9-0.6-8.8-5-24.2-25.2-45.4-42.7-62.3z"/>
					</g>
				</g>
			</g>
		</g>
	</g>
</svg>